<svg width="76" height="76" viewBox="0 0 76 76" fill="none" xmlns="http://www.w3.org/2000/svg">
<path d="M75.0642 0.567263C76.1501 1.44953 76.3151 3.04504 75.4328 4.13092L42.4995 44.6643C42.0156 45.2598 41.2879 45.6039 40.5205 45.6001C39.7532 45.5961 39.029 45.2446 38.5511 44.6442L23.3511 25.5456C22.4799 24.4508 22.6611 22.8571 23.7558 21.9857C24.8505 21.1145 26.4443 21.2957 27.3155 22.3904L40.5537 39.0242L71.5005 0.935914C72.3828 -0.149961 73.9783 -0.315021 75.0642 0.567263Z" fill="black"/>
<path d="M38 5.06667C19.8114 5.06667 5.06667 19.8114 5.06667 38C5.06667 44.1456 6.74998 49.898 9.68069 54.8213C10.3129 55.8834 10.196 57.251 9.32207 58.125C8.20563 59.2415 6.34951 59.0961 5.52785 57.7478C2.02051 51.993 0 45.2324 0 38C0 17.0132 17.0132 0 38 0C43.5577 0 48.8433 1.19476 53.6082 3.34386C54.8836 3.9191 55.4512 5.41934 54.8759 6.69474C54.3007 7.97013 52.8005 8.53773 51.5251 7.96248C47.4021 6.10286 42.8255 5.06667 38 5.06667Z" fill="black"/>
<path d="M14.1213 64.0739C13.1002 65.095 13.1294 66.7676 14.2562 67.6705C20.7609 72.8826 29.0164 76 38 76C58.9867 76 76 58.9868 76 38C76 34.7235 75.5848 31.5404 74.8027 28.5019C74.4539 27.1469 73.0728 26.3312 71.7179 26.6799C70.3629 27.0286 69.5472 28.4098 69.8959 29.7648C70.5727 32.3942 70.9333 35.1532 70.9333 38C70.9333 56.1886 56.1886 70.9333 38 70.9333C30.3358 70.9333 23.283 68.3153 17.6872 63.9246C16.6194 63.0868 15.0809 63.1142 14.1213 64.0739Z" fill="black"/>
</svg>
